# xmcd
#
# Track frame offsets: 
#        150
#        17365
#        39533
#        61184
#
# Disc length: 1100 seconds
#
# Revision: 0
# Processed by: cddbd v1.5.2PL0 Copyright (c) Steve Scherf et al.
# Submitted via: ExactAudioCopy v0.99pb3
#
DISCID=24044a04
DTITLE=Purplene - Songs From The Marketplace
DYEAR=2003
DGENRE=Quietly Suburban
TTITLE0=As The Marketplace Orders
TTITLE1=Decision 55 (Fingers X'd)
TTITLE2=Mooghurtplatz
TTITLE3=Aun Doorback
EXTD=
EXTT0=
EXTT1=
EXTT2=
EXTT3=
PLAYORDER=
